<?xml version="1.0" encoding="utf-8"?>
<svg xmlns="http://www.w3.org/2000/svg" viewBox="0 0 48 48" width="144" height="144">
  <path d="M16.970703 5.9726562 A 2.0002 2.0002 0 0 0 15 8L14.998047 13.5C14.998047 14.345371 14.343418 15 13.498047 15L7.9980469 15 A 2.0002 2.0002 0 1 0 7.9980469 19L13.498047 19C16.512676 19 18.998047 16.514629 18.998047 13.5L19 8 A 2.0002 2.0002 0 0 0 16.970703 5.9726562 z M 30.970703 5.9726562 A 2.0002 2.0002 0 0 0 29.001953 8L29 13.5C29 16.514629 31.485371 19 34.5 19L40 19 A 2.0002 2.0002 0 1 0 40 15L34.5 15C33.654629 15 33 14.345371 33 13.5L33.001953 8 A 2.0002 2.0002 0 0 0 30.970703 5.9726562 z M 8 29 A 2.0002 2.0002 0 1 0 8 33L13.5 33C14.345371 33 15 33.654629 15 34.5L15 40 A 2.0002 2.0002 0 1 0 19 40L19 34.5C19 31.485371 16.514629 29 13.5 29L8 29 z M 34.5 29C31.485371 29 29 31.485371 29 34.5L29 40 A 2.0002 2.0002 0 1 0 33 40L33 34.5C33 33.654629 33.654629 33 34.5 33L40 33 A 2.0002 2.0002 0 1 0 40 29L34.5 29 z" fill="#FFFFFF" />
</svg>