<?xml version="1.0" encoding="utf-8"?>
<svg xmlns="http://www.w3.org/2000/svg" viewBox="0 0 48 48" width="144" height="144">
  <path d="M11.5 6C8.4853713 6 6 8.4853713 6 11.5L5.9980469 17 A 2.0002 2.0002 0 1 0 9.9980469 17L10 11.5C10 10.654629 10.654629 10 11.5 10L17 10 A 2.0002 2.0002 0 1 0 17 6L11.5 6 z M 31 6 A 2.0002 2.0002 0 1 0 31 10L36.5 10C37.345371 10 38 10.654629 38 11.5L37.998047 17 A 2.0002 2.0002 0 1 0 41.998047 17L42 11.5C42 8.4853713 39.514629 6 36.5 6L31 6 z M 7.9707031 28.972656 A 2.0002 2.0002 0 0 0 6 31L6 36.5C6 39.514629 8.4853713 42 11.5 42L17 42 A 2.0002 2.0002 0 1 0 17 38L11.5 38C10.654629 38 10 37.345371 10 36.5L10 31 A 2.0002 2.0002 0 0 0 7.9707031 28.972656 z M 39.970703 28.972656 A 2.0002 2.0002 0 0 0 38 31L38 36.5C38 37.345371 37.345371 38 36.5 38L31 38 A 2.0002 2.0002 0 1 0 31 42L36.5 42C39.514629 42 42 39.514629 42 36.5L42 31 A 2.0002 2.0002 0 0 0 39.970703 28.972656 z" fill="#FFFFFF" />
</svg>