<?xml version="1.0" encoding="UTF-8"?>
<!DOCTYPE svg PUBLIC "-//W3C//DTD SVG 1.1//EN" "http://www.w3.org/Graphics/SVG/1.1/DTD/svg11.dtd">
<!-- Creator: CorelDRAW -->
<svg xmlns="http://www.w3.org/2000/svg" xml:space="preserve" width="26.458mm" height="26.458mm" version="1.1" style="shape-rendering:geometricPrecision; text-rendering:geometricPrecision; image-rendering:optimizeQuality; fill-rule:evenodd; clip-rule:evenodd"
viewBox="0 0 2754.84 2754.84"
 xmlns:xlink="http://www.w3.org/1999/xlink"
 xmlns:xodm="http://www.corel.com/coreldraw/odm/2003">
 <defs>
  <style type="text/css">
   <![CDATA[
    .fil0 {fill:#2D76CC}
    .fil1 {fill:white;fill-rule:nonzero}
   ]]>
  </style>
 </defs>
 <g id="Capa_x0020_1">
  <metadata id="CorelCorpID_0Corel-Layer"/>
  <g id="_2240625188944">
   <circle class="fil0" cx="1377.42" cy="1377.42" r="1377.42"/>
   <path class="fil1" d="M1910.8 2129.67l-1285.59 0 0 -768.81 533.36 275.73 533.38 -275.73 0 551.46 -109.42 0 0 -355.66 -423.96 208.37 -423.96 -208.37 0 463.58 1066.77 0 -1.25 -605.44 109.42 0 1.25 714.87zm218.86 -1504.5l0 1504.5 -109.43 0 0 -1395.08 -1285.65 0 0 429.98 423.98 219.16 0 128.41 -533.41 -275.67c0,-149.93 0,-461.37 0,-611.31 501.49,0 1003.01,0 1504.51,0zm-273.56 543.74c46.16,0 83.57,37.39 83.57,83.55 0,46.16 -37.41,83.55 -83.57,83.55 -46.16,0 -83.55,-37.39 -83.55,-83.55 0,-46.16 37.39,-83.55 83.55,-83.55z"/>
  </g>
 </g>
</svg>
